<svg xmlns="http://www.w3.org/2000/svg" viewBox="0 0 48 48" width="48px" height="48px"><path fill="#FF8F00" d="M39.465 17.124c1.836-.175 2.346-1.604 2.482-2.557-.057-1.895-.661-3.85-4.032-4.604L6 6v9.905l19.716 2.403L39.465 17.124zM42 42l-31.951-3.763C6.837 37.597 6 35.432 6 33.686v-9.174-.22c0 .11.03 2.711 2.646 3.234L42 31.241V42z"/><path fill="#FFCA28" d="M8.646,27.526l12.616,1.405l16.343-1.476c3.209-0.315,4.349-2.605,4.349-4.471L42,13.91c0,0.697-0.184,2.99-2.535,3.214l-29.384,2.531c-0.046,0.005-0.091,0.011-0.136,0.021C6.83,20.376,6,22.36,6,24.057v0.235C6,24.402,6.03,27.003,8.646,27.526z"/><path fill="#ED8F29" d="M35 17.513L33 17.685 33 24 35 24zM14.988 19.232L13 19.404 13 23.798 14.988 23.798zM30.967 17.856L29 18.028 29 21.935 30.967 21.935zM10.081 19.655c-.046.005-.091.011-.136.021C9.602 19.753 9.296 19.853 9 19.961V26h1.994v-6.423L10.081 19.655zM18.983 18.89L17 19.061 17 22.962 18.983 22.962zM27 18.2L25 18.372 25 23 27 23zM38.997 17.168L37 17.341 37.04 21 38.997 21zM23 18.545L21 18.717 21 25 23 25z"/><g><path fill="#B75F00" d="M31 30.018L29.004 29.795 29.004 33.549 31 33.549zM35 30.452L33.002 30.229 33.002 36 35 36zM11 27.793L9.002 27.57 9.002 33.549 11 33.549zM26.997 29.552L25 29.329 25 33 26.997 33zM23 29.127L21.002 28.905 21.002 34.538 23 34.538zM15 28.237L13.003 28.016 13.003 31.572 15 31.572zM37 30.6L37 34 38.997 34 38.997 30.822zM19 28.683L17.002 28.46 17.002 32.1 19 32.1zM26.998 8.604L25.001 8.356 25.001 12.393 26.998 12.393zM22.998 8.108L21 7.86 21 13.91 22.998 13.91zM30.998 9.1L29.002 8.852 29.002 12.921 30.998 12.921zM10.998 6.62L9 6.372 9 12.921 10.998 12.921zM18.998 7.612L17 7.364 17 11.472 18.998 11.472zM14.998 7.116L13.001 6.868 13.001 10.944 14.998 10.944zM38.957 10.27c-.316-.116-.658-.221-1.042-.306L37 9.845v3.612h1.957V10.27zM34.998 9.597L33 9.348 33 15.382 34.998 15.382z"/></g></svg>